<svg xmlns="http://www.w3.org/2000/svg" width="65.266" height="65.266" viewBox="0 0 65.266 65.266"><path d="M58.273,2.25H6.993A6.993,6.993,0,0,0,0,9.243V60.523a6.993,6.993,0,0,0,6.993,6.993H58.273a6.993,6.993,0,0,0,6.993-6.993V9.243A6.993,6.993,0,0,0,58.273,2.25ZM55.886,47.029,53.7,56.5a2.185,2.185,0,0,1-2.128,1.694A42.251,42.251,0,0,1,9.324,15.944a2.287,2.287,0,0,1,1.694-2.128l9.469-2.185a2.656,2.656,0,0,1,.491-.057A2.37,2.37,0,0,1,22.987,12.9l4.37,10.2a2.608,2.608,0,0,1,.176.861,2.477,2.477,0,0,1-.8,1.691l-5.52,4.516A33.785,33.785,0,0,0,37.352,46.3l4.516-5.52a2.477,2.477,0,0,1,1.691-.8,2.6,2.6,0,0,1,.861.176l10.2,4.37a2.367,2.367,0,0,1,1.324,2.009,2.537,2.537,0,0,1-.057.491Z" transform="translate(0 -2.25)"/></svg>