<svg xmlns="http://www.w3.org/2000/svg" width="272.293" height="271.5" viewBox="0 0 272.293 271.5"><g transform="translate(-453 -326)"><path d="M709.073,527.435l15.11-37.784-8.13-3.253L699.64,527.435h-1.414V474.887h-8.758V404.823H671.952V387.306h-8.758v17.516h-8.758V378.548h-8.758v26.274h-8.758V387.306h-8.758v17.516H610.645v52.548H593.129V479.83a77.81,77.81,0,0,0-40.4-26.134l-1.987-5.958A21.916,21.916,0,0,0,565,435.476h1.856a17.536,17.536,0,0,0,17.516-17.516v-21.9a8.768,8.768,0,0,0,8.758-8.758v-8.758a8.768,8.768,0,0,0-8.758-8.758h-.761a52.517,52.517,0,0,0-103.574,0h-.761a8.768,8.768,0,0,0-8.758,8.758v8.758a8.768,8.768,0,0,0,8.758,8.758v21.9a17.536,17.536,0,0,0,17.516,17.516h1.856A21.921,21.921,0,0,0,512.9,447.738l-1.987,5.958A77.457,77.457,0,0,0,453,528.932v2.882a48.187,48.187,0,0,0,26.274,42.853V597.5H610.645V562.468h13.579a21.9,21.9,0,0,0,42.907,0h21.978a35.712,35.712,0,0,0,35.334-29.932l.85-5.1Zm-54.638,0v-43.79h35.032v43.79ZM619.4,413.581H680.71v61.306H654.435V457.371H619.4Zm26.274,52.548v61.306h-43.79V466.129Zm-52.548,29.234v32.073h-1.414L575.3,486.4l-8.13,3.253,15.116,37.786H566.068l.849,5.1a35.727,35.727,0,0,0,8.7,18.064v38.143h-21.9v-8.758a13.137,13.137,0,0,0,0-26.274V463.181a69.03,69.03,0,0,1,39.411,32.182ZM541.8,448.613l2.7,8.111-12.681,19.028-12.687-19.028,2.706-8.111Zm3.156,44.444-7.714-9.648,7.714-11.575Zm-26.274,0V471.833l7.714,11.575Zm0,14.018,13.137-16.421,13.137,16.421v38.647a13.133,13.133,0,0,0-4.379-.77h-5.129a13.058,13.058,0,0,0-9.292,3.848l-4.493,4.494-2.982-.664Zm8.758,52.827,4.91-4.909a4.356,4.356,0,0,1,3.1-1.283h5.129a4.387,4.387,0,0,1,4.379,4.379v4.379h8.758a4.379,4.379,0,0,1,0,8.758H527.444Zm17.516,20.082v8.758H518.685v-8.758Zm21.9-153.266V409.2a8.758,8.758,0,0,1,0,17.516Zm8.758-23.839a17.347,17.347,0,0,0-8.758-2.435v-4.379h8.758Zm-.893-33.088H544.96V336.762A43.415,43.415,0,0,1,574.72,369.79ZM536.2,334.978V369.79h-8.758V334.978c1.44-.14,2.9-.22,4.379-.22s2.939.08,4.379.22Zm-17.516,1.784V369.79H488.925a43.415,43.415,0,0,1,29.761-33.028Zm-39.417,41.786h105.1v8.758h-105.1Zm17.522,17.516v4.379a17.347,17.347,0,0,0-8.758,2.435v-6.814Zm-8.758,21.9a8.768,8.768,0,0,1,8.758-8.758v17.516a8.768,8.768,0,0,1-8.758-8.758Zm17.516,8.758V396.065H558.1v30.653a13.151,13.151,0,0,1-13.137,13.137H518.685a13.151,13.151,0,0,1-13.137-13.137Zm-43.79,105.1v-2.882a68.695,68.695,0,0,1,48.169-65.811v87.566l-4.753-1.055a21.772,21.772,0,0,1-17.142-21.379V509.919h-8.758v18.334a30.472,30.472,0,0,0,24,29.923l15.409,3.424v9.625H501.169a39.458,39.458,0,0,1-39.411-39.411Zm26.274,46.3a48.048,48.048,0,0,0,13.137,1.865h8.758v8.758h-21.9Zm96.339,10.623v-31.03a35.808,35.808,0,0,0,17.516,4.741v26.289Zm61.306-17.516a13.151,13.151,0,0,1-13.137-13.137,4.387,4.387,0,0,1,4.379-4.379h17.516a4.387,4.387,0,0,1,4.379,4.379,13.151,13.151,0,0,1-13.137,13.137Zm43.428-17.516H666.763a13.123,13.123,0,0,0-12.334-8.758H636.914a13.121,13.121,0,0,0-12.33,8.758H602.24a26.967,26.967,0,0,1-25.331-17.516H714.427a26.941,26.941,0,0,1-25.322,17.516Zm0,0"/><rect width="9" height="9" transform="translate(663.207 422)"/><rect width="9" height="9" transform="translate(645.207 422)"/><rect width="9" height="9" transform="translate(628.207 422)"/><rect width="9" height="9" transform="translate(663.207 440)"/><rect width="9" height="9" transform="translate(628.207 440)"/><rect width="9" height="9" transform="translate(645.207 440)"/><rect width="9" height="9" transform="translate(663.207 457)"/><rect width="9" height="44" transform="translate(610.207 475)"/><rect width="9" height="44" transform="translate(628.207 475)"/><rect width="18" height="9" transform="translate(663.207 492)"/><rect width="18" height="9" transform="translate(663.207 510)"/></g></svg>