<svg xmlns="http://www.w3.org/2000/svg" width="267.5" height="267.5" viewBox="0 0 267.5 267.5"><g transform="translate(-454 -326)"><path d="M551.887,662.944a12.944,12.944,0,1,0-12.944,12.943,12.958,12.958,0,0,0,12.944-12.943Zm-12.944,4.314a4.315,4.315,0,1,1,4.315-4.314,4.319,4.319,0,0,1-4.315,4.314Zm0,0" transform="translate(-20.226 -91.016)"/><path d="M611.887,662.944a12.944,12.944,0,1,0-12.944,12.943,12.957,12.957,0,0,0,12.944-12.943Zm-12.944,4.314a4.315,4.315,0,1,1,4.315-4.314,4.319,4.319,0,0,1-4.315,4.314Zm0,0" transform="translate(-37.081 -91.016)"/><path d="M694,423.887h34.516V398H694Zm8.629-17.258h17.258v8.629H702.629Zm0,0" transform="translate(-67.419 -20.226)"/><path d="M677.56,412.29H721.5V369.145H710.023L653.934,326H634.485L509.364,369.145H490.809l-21.388,25.671a10.647,10.647,0,0,0,8.174,17.474h19.551v25.887H454v43.145h43.145a8.639,8.639,0,0,0,8.629,8.629H514.4a8.639,8.639,0,0,0,8.629-8.629h43.145V438.177H523.032V412.29h87.085a12.918,12.918,0,0,0,7.834,7.834v60.482l-31.932,21.5a30.143,30.143,0,0,0-24.157-12.154H535.976A21.6,21.6,0,0,0,514.4,511.524v4.315H475.573A21.6,21.6,0,0,0,454,537.411v21.573h38.943a21.355,21.355,0,0,0-4.427,12.944A21.6,21.6,0,0,0,510.089,593.5H691.3a30.238,30.238,0,0,0,30.2-30.2V531.15l-51.774-45.684V420.125a12.918,12.918,0,0,0,7.834-7.834Zm-33.722,51.774a21.492,21.492,0,0,0-17.258,8.764V420.919H661.1v51.909a21.492,21.492,0,0,0-17.258-8.764Zm-77.661,86.29H540.29V515.839h21.573a4.319,4.319,0,0,1,4.315,4.315Zm25.887,8.629V538.8l25.887-17.5v54.948a21.525,21.525,0,0,0,1.817,8.629H587.644a21.147,21.147,0,0,0-.006-25.887Zm34.516,17.258A12.957,12.957,0,0,1,639.524,563.3a12.821,12.821,0,0,1,7.407,2.359l4.2,2.955,2.188-4.646a8.577,8.577,0,0,1,16.106,1.505l-6.753,11.259a11.084,11.084,0,0,0-1.578,5.7,10.934,10.934,0,0,0,.292,2.441H629.98a12.891,12.891,0,0,1-3.4-8.629ZM674.6,556.86a17.135,17.135,0,0,0-4.87-4.166V525.33l15.955,13.056Zm-13.5-6.506a17.282,17.282,0,0,0-13.087,6.068,21.241,21.241,0,0,0-21.429,2.674V515.46l12.873-8.7a21.7,21.7,0,0,0,4.385.452,20.936,20.936,0,0,0,3.326-.337l13.932,11.4Zm-17.258-51.774a12.944,12.944,0,1,1,12.943-12.944,12.958,12.958,0,0,1-12.943,12.944Zm25.887-90.6a4.319,4.319,0,0,1-4.315,4.315H622.266a4.319,4.319,0,0,1-4.314-4.315V373.46a4.319,4.319,0,0,1,4.314-4.315h43.145a4.319,4.319,0,0,1,4.315,4.315ZM638.2,334.629h11.281l9.708,25.887h-30.7Zm74.673,69.032H678.355V377.774h34.516ZM677.56,369.145a12.916,12.916,0,0,0-8.994-8.194l-6.753-18.005,34.058,26.2Zm-49.609-31.763-8.834,23.567a12.924,12.924,0,0,0-9,8.19H535.839Zm-79.032,43.272,17.258,23.008H531.661Zm-25.887,20.129-17.258-23.008H540.29Zm34.516-23.008h34.516l-17.258,23.008Zm45.3,0h6.472v25.887H583.435ZM475.573,401.641a2.023,2.023,0,0,1,.469-1.294l18.811-22.573h.135L514.4,403.661H477.595a2.024,2.024,0,0,1-2.022-2.02Zm21.573,45.165v8.629H462.629v-8.629Zm-34.516,25.887v-8.629h34.516v8.629Zm60.4,0v-8.629h34.516v8.629Zm34.516-25.887v8.629H523.032v-8.629ZM514.4,481.323h-8.629V412.29H514.4Zm108.1,6.624a21.431,21.431,0,0,0,7.955,14.474l-38.39,25.958v-8.225a29.983,29.983,0,0,0-1.9-10.441Zm-159.87,49.465a12.957,12.957,0,0,1,12.944-12.944h47.46V511.524a12.957,12.957,0,0,1,12.944-12.944h25.887a21.6,21.6,0,0,1,21.573,21.573v30.2h-8.629v-30.2a12.957,12.957,0,0,0-12.944-12.944H540.29a8.639,8.639,0,0,0-8.629,8.629v34.516H462.629Zm103.548,47.46H510.089a12.944,12.944,0,0,1,0-25.887h60.4a12.944,12.944,0,0,1,0,25.887ZM712.871,563.3A21.6,21.6,0,0,1,691.3,584.871H672.167a2.441,2.441,0,0,1-2.093-3.7l23.666-39.448h19.131Zm-20.033-30.2-36.548-29.9a21.569,21.569,0,0,0,8-11.013L710.666,533.1Zm0,0"/><rect width="8" height="9" transform="translate(471.5 533)"/><rect width="9" height="9" transform="translate(488.5 533)"/><rect width="9" height="9" transform="translate(505.5 533)"/></g></svg>