<svg xmlns="http://www.w3.org/2000/svg" width="78.152" height="69.469" viewBox="0 0 78.152 69.469"><path d="M21.709,60.785c-3.473,0-6.947-3.039-8.684-4.342C4.342,50.365,1.737,48.194,0,46.891V65.127a4.342,4.342,0,0,0,4.342,4.342H39.076a4.342,4.342,0,0,0,4.342-4.342V46.891c-1.737,1.3-4.342,3.473-13.025,9.552C28.656,57.746,25.182,60.785,21.709,60.785ZM39.076,34.734H4.342A4.342,4.342,0,0,0,0,39.076v2.171c3.473,2.605,3.039,2.605,15.63,11.723,1.3.868,3.908,3.473,6.079,3.473s4.776-2.605,6.079-3.039c12.591-9.118,12.157-9.118,15.63-11.723V39.076A4.342,4.342,0,0,0,39.076,34.734ZM73.811,21.709H30.393a4.342,4.342,0,0,0-4.342,4.342v4.342H39.076a8.7,8.7,0,0,1,8.644,7.845l.039-.03V56.443H73.811A4.342,4.342,0,0,0,78.152,52.1V26.051A4.342,4.342,0,0,0,73.811,21.709ZM69.469,39.076H60.785V30.393h8.684ZM21.709,26.051a8.693,8.693,0,0,1,8.684-8.684H60.785V4.342A4.342,4.342,0,0,0,56.443,0H13.025A4.342,4.342,0,0,0,8.684,4.342V30.393H21.709Z"/></svg>