<svg xmlns="http://www.w3.org/2000/svg" width="427.009" height="85.8" viewBox="0 0 427.009 85.8"><defs><style>.a,.b{fill:#fff;}.b{font-size:20px;font-family:Montserrat-Regular, Montserrat;}</style></defs><g transform="translate(-118 -4073)"><g transform="translate(59.4 3817.999)"><path class="a" d="M480.608,320.367c-.811,3.892-3.162,6.568-8.758,6.568-7.136,0-9.082-4.946-9.082-10.947,0-6.082,2.27-10.947,9.082-10.947,5.027,0,7.622,2.838,8.6,6.892l17.11-.081c-1.378-11.6-8.757-20.353-25.056-20.353-19.867,0-25.3,11.028-25.3,24.651s6.487,24.651,25.3,24.651c17.272,0,23.921-8.839,25.056-20.434Z" transform="translate(-73.492)"/><path class="a" d="M120.9,294.7h17.92l15.65,23.678V294.7H168.9v43.869H152.281L135.334,313.35v25.3H120.9Z" transform="translate(-11.782 -0.605)"/><path class="a" d="M294.636,317.486s8.19-3.973,7.947-11.6c-.081-3.406-2.838-10.623-11.92-11.19H253.2v43.95h15.569V323.324h11.92a4.516,4.516,0,0,1,4.622,3.649,57.265,57.265,0,0,1,2.027,7.947c.162.811.568,3.649.568,3.649h16.38c0,.081-2.757-20.434-9.649-21.083m-10.3-4.784h-15.65v-6.73h15.65c3.73,0,3.649,6.73,0,6.73" transform="translate(-36.803 -0.605)"/><path class="a" d="M413.335,326.486h-14.19l5.433,12.163H436.2L415.93,294.7h-20.6L377.9,338.65h15.812l11.677-29.759Z" transform="translate(-60.386 -0.605)"/><path class="a" d="M573.328,293.941a5.542,5.542,0,0,0-3.811-1.541H536.433A5.433,5.433,0,0,0,531,297.833v36.814a5.145,5.145,0,0,0,1.622,3.811,5.278,5.278,0,0,0,3.811,1.622h33.084a5.145,5.145,0,0,0,3.811-1.622,5.278,5.278,0,0,0,1.622-3.811V297.752a5.623,5.623,0,0,0-1.622-3.811M571.3,334.566a1.8,1.8,0,0,1-1.784,1.784H536.433a1.988,1.988,0,0,1-1.3-.487,1.842,1.842,0,0,1-.487-1.3V297.752a1.842,1.842,0,0,1,.487-1.3,1.914,1.914,0,0,1,1.3-.568h33.084a1.613,1.613,0,0,1,1.3.568,1.842,1.842,0,0,1,.487,1.3Z" transform="translate(-89.341 -0.17)"/><path class="a" d="M558.52,299.7l-6.406,3.73,6.649,3.162L540.6,317.053v12.569l10.866,6.244,10.866-6.244v-9.568l-6.649-3.487v9.244l-4.217,2.433-4.217-2.433v-4.865l15.163-8.758v7.055l6.406-3.649V304.646Z" transform="translate(-91.156 -1.551)"/><path class="a" d="M362.411,294.7H324.3v43.95h15.569V323.324h23.11s10.785-.568,10.866-15c0-4.054-3.73-12.325-11.433-13.623m-7.055,18h-15.65v-6.73h15.65c3.73,0,3.73,6.73,0,6.73" transform="translate(-50.249 -0.605)"/><path class="a" d="M58.6,294.8h43.058v11.271h-27v5.514h24.57v10.541H74.655v5.433h27.813v11.352H58.6Z" transform="translate(0 -0.624)"/><path class="a" d="M189.9,294.9h43.058v11.352h-27v5.433h24.57v10.541h-24.57v5.514h27.813v11.271H189.9Z" transform="translate(-24.832 -0.643)"/><path class="a" d="M510.549,343.392a3.221,3.221,0,0,1,3.244-3.325,3.271,3.271,0,0,1,3.243,3.325,3.221,3.221,0,0,1-3.243,3.325,3.271,3.271,0,0,1-3.244-3.325m-.649,0a3.842,3.842,0,0,0,3.892,3.892,3.892,3.892,0,1,0-3.892-3.892m2.352,2.27h.73v-1.946h.73l1.216,1.946h.73l-1.3-2.027c.649-.081,1.216-.405,1.216-1.216,0-.892-.487-1.3-1.622-1.3H512.17v4.541Zm.73-3.973h.973c.487,0,.973.081.973.73,0,.73-.568.73-1.216.73h-.73v-1.46Z" transform="translate(-85.35 -9.078)"/></g><text class="b" transform="translate(118 4073)"><tspan x="0" y="19">Distribuidora oficial de:</tspan></text></g></svg>