<svg xmlns="http://www.w3.org/2000/svg" width="70.401" height="49.5" viewBox="0 0 70.401 49.5"><defs><style>.a{fill:#fff;}</style></defs><path class="a" d="M69.98,12.245a8.846,8.846,0,0,0-6.224-6.265C58.265,4.5,36.25,4.5,36.25,4.5S14.236,4.5,8.745,5.981a8.846,8.846,0,0,0-6.224,6.265C1.05,17.771,1.05,29.3,1.05,29.3s0,11.529,1.471,17.055A8.714,8.714,0,0,0,8.745,52.52C14.236,54,36.25,54,36.25,54s22.015,0,27.505-1.481a8.714,8.714,0,0,0,6.224-6.164C71.451,40.829,71.451,29.3,71.451,29.3s0-11.529-1.471-17.055ZM29.05,39.768V18.833L47.45,29.3,29.05,39.768Z" transform="translate(-1.05 -4.5)"/></svg>