<svg xmlns="http://www.w3.org/2000/svg" width="49.301" height="49.301" viewBox="0 0 49.301 49.301"><defs><style>.a{fill:#fff;}</style></defs><path class="a" d="M51.079,4.5H7.222A2.723,2.723,0,0,0,4.5,7.222V51.079A2.723,2.723,0,0,0,7.222,53.8H29.151V34.286H23.258V27.1h5.893V21.781c0-6.368,4.417-9.835,10.1-9.835,2.722,0,5.649.205,6.33.3v6.651H41.052c-3.094,0-3.685,1.464-3.685,3.621V27.1h7.37l-.963,7.19H37.368V53.8H51.079A2.723,2.723,0,0,0,53.8,51.079V7.222A2.723,2.723,0,0,0,51.079,4.5Z" transform="translate(-4.5 -4.5)"/></svg>