<svg xmlns="http://www.w3.org/2000/svg" width="50.001" height="50.001" viewBox="0 0 50.001 50.001"><defs><style>.a{fill:#fff;}</style></defs><path class="a" d="M46.43,2.25H3.56A3.587,3.587,0,0,0,0,5.855V48.646a3.587,3.587,0,0,0,3.56,3.605H46.43A3.6,3.6,0,0,0,50,48.646V5.855A3.6,3.6,0,0,0,46.43,2.25ZM15.112,45.108H7.7V21.246h7.422V45.108ZM11.407,17.987a4.3,4.3,0,1,1,4.3-4.3,4.3,4.3,0,0,1-4.3,4.3ZM42.892,45.108H35.481V33.5c0-2.768-.056-6.328-3.851-6.328-3.862,0-4.453,3.013-4.453,6.127V45.108H19.766V21.246h7.11v3.259h.1A7.806,7.806,0,0,1,34,20.655c7.5,0,8.9,4.944,8.9,11.373Z" transform="translate(0 -2.25)"/></svg>